<?xml version="1.0" standalone="no"?><!DOCTYPE svg PUBLIC "-//W3C//DTD SVG 1.1//EN" "http://www.w3.org/Graphics/SVG/1.1/DTD/svg11.dtd"><svg width="200" height="200" viewBox="0 0 200 200" version="1.1" xmlns="http://www.w3.org/2000/svg" xmlns:xlink="http://www.w3.org/1999/xlink"><defs><style type="text/css"><![CDATA[
@font-face { font-family: ifont; src: url("http://at.alicdn.com/t/font_1442373896_4754455.eot?#iefix") format("embedded-opentype"), url("http://at.alicdn.com/t/font_1442373896_4754455.woff") format("woff"), url("http://at.alicdn.com/t/font_1442373896_4754455.ttf") format("truetype"), url("http://at.alicdn.com/t/font_1442373896_4754455.svg#ifont") format("svg"); }

]]></style></defs><g class="transform-group"><g transform="scale(0.1953125, 0.1953125)"><path d="M369.273633 444.348663c61.914683-61.918295 103.993114-98.025259 132.781147-120.664813 175.878304-138.503351 315.591844-80.974247 315.591844-80.974247C577.339335 2.398702 227.482904 302.366471 227.482904 302.366471L113.414521 188.323375 21.288478 659.708008l471.319608-92.02128L369.273633 444.348663zM539.987 443.233l123.331 123.353c-61.926 61.926-103.979 98.018-132.756 120.676-175.9 138.474-315.617 80.945-315.617 80.945 240.318 240.3 590.182-59.657 590.182-59.657l114.050 114.047 92.13-471.399-471.32 92.036z" fill="#272636"></path></g></g></svg>